<svg width="200" height="200" viewBox="0 0 200 200" fill="none" xmlns="http://www.w3.org/2000/svg">
<rect y="6" width="200" height="194" fill="white"/>
<mask id="mask0_64_554" style="mask-type:luminance" maskUnits="userSpaceOnUse" x="26" y="20" width="148" height="173">
<path d="M26.1333 20H173.867V192.4H26.1333V20Z" fill="white"/>
</mask>
<g mask="url(#mask0_64_554)">
<path d="M172.025 21.5501C170.812 20.4209 169.135 20.0917 167.527 20.0501C165.16 20.0001 162.718 20.4709 160.454 21.1126C155.552 22.4834 150.812 24.7084 146.348 27.1334C142.021 29.4917 137.877 32.1771 133.783 34.9146C129.868 37.5251 126.018 40.4459 121.598 42.1563C119.552 42.948 117.387 43.5542 115.198 43.8146C112.596 44.1188 109.977 43.9251 107.391 43.6209C104.9 43.3355 102.414 42.9396 99.906 42.8209C97.3456 42.6959 94.8185 43.0584 92.2914 43.4271C89.8081 43.7896 87.3143 44.1105 84.806 43.823C82.6164 43.5709 80.4601 42.9563 78.406 42.1646C73.9851 40.4542 70.1351 37.5334 66.2206 34.923C62.1185 32.1855 57.9851 29.5001 53.656 27.1417C49.1914 24.7167 44.4518 22.4917 39.5497 21.1209C37.2768 20.4876 34.8435 20.0084 32.4768 20.0584C30.8768 20.0917 29.1914 20.4209 27.9872 21.5501C25.7726 23.5959 26.1601 27.2084 26.1851 29.9292C26.2435 35.048 27.1206 40.1271 28.2747 45.1042C29.4539 50.1646 31.0101 55.1417 32.0393 60.2376C33.031 65.1459 33.4101 70.1563 33.3351 75.1667C33.1914 84.9876 31.3143 94.6459 29.8664 104.321C29.1247 109.256 28.2581 114.308 28.2226 119.313C28.1893 123.598 28.881 127.919 30.1935 131.994C35.7768 149.342 50.7831 161.46 64.6956 172.163C68.7539 175.288 72.9143 178.269 77.1768 181.106C80.6456 183.415 83.8956 186.033 87.4414 188.223C90.9101 190.363 94.7601 192.096 98.8935 192.265C103.568 192.45 107.66 190.169 111.652 188.029C120.393 183.346 128.512 177.621 136.293 171.506C143.46 165.881 150.693 160.096 156.833 153.333C162.508 147.077 167.35 139.885 169.91 131.767C171.2 127.673 171.864 123.354 171.798 119.058C171.721 114.04 170.854 108.979 170.112 104.027C168.656 94.3501 166.796 84.6917 166.685 74.873C166.627 69.8542 167.031 64.8438 168.05 59.9167C169.102 54.8292 170.652 49.8542 171.823 44.8001C172.941 39.9251 173.785 34.948 173.843 29.9376C173.835 27.2084 174.223 23.6042 172.025 21.5501ZM30.631 24.2521C30.556 24.3126 30.5143 24.3626 30.631 24.2521ZM167.914 44.7084C166.735 49.6605 165.212 54.5438 164.235 59.5376C162.339 69.1626 162.677 78.9146 163.948 88.5917C164.589 93.4667 165.398 98.3251 166.154 103.185C166.896 107.985 167.704 112.844 167.948 117.702C168.352 125.788 165.91 133.577 161.785 140.467C157.591 147.465 151.898 153.452 145.758 158.773C138.575 165.004 131.148 171.01 123.308 176.4C119.425 179.069 115.433 181.588 111.308 183.869C109.21 185.031 107.089 186.133 104.925 187.16C103.189 187.988 101.362 188.458 99.4747 188.458C95.7956 188.467 92.2747 186.748 89.1268 184.796C85.7331 182.681 82.6081 180.171 79.281 177.948C70.9956 172.417 63.1289 166.335 55.5497 159.885C49.3185 154.579 43.4581 148.71 39.0372 141.771C34.7414 135.033 31.9456 127.354 32.0122 119.294C32.0476 114.521 32.856 109.71 33.5706 105.004C34.2956 100.188 35.1206 95.3876 35.7851 90.5709C37.1247 80.8688 37.731 71.1334 36.1143 61.4251C34.4393 51.4792 30.5226 41.9959 30.0331 31.823C29.9497 30.0813 29.9081 28.3126 29.9914 26.5688C30.0081 26.2813 30.0247 26.0042 30.0601 25.7188C30.0518 25.8521 30.1518 25.2126 30.1851 25.0855C30.2185 24.9605 30.2706 24.8334 30.3039 24.7084V24.7001C30.3039 24.7001 30.3039 24.7001 30.3039 24.6917C30.3456 24.6313 30.3872 24.5396 30.4206 24.4792C30.4372 24.4459 30.4476 24.4292 30.456 24.4042C30.4643 24.3959 30.4726 24.3959 30.481 24.3876C30.5393 24.3459 30.606 24.2771 30.6664 24.2188C30.6997 24.1938 30.7414 24.1688 30.7747 24.1521C30.8685 24.1188 31.2726 23.9584 30.8081 24.1188C30.9435 24.0667 31.0872 24.0251 31.2206 23.9834C31.331 23.9584 31.8872 23.8646 31.7935 23.8646C32.231 23.823 32.6789 23.8146 33.1164 23.8313C35.4831 23.9001 37.8143 24.4792 40.056 25.2126C49.2101 28.1855 57.3872 33.5334 65.3185 38.8459C69.2851 41.5001 73.1685 44.2021 77.6643 45.8959C79.8789 46.7292 82.1706 47.2688 84.5185 47.5542C87.0539 47.8667 89.556 47.5959 92.0726 47.2417C94.3643 46.923 96.6456 46.5271 98.9706 46.5605C101.479 46.5938 103.973 46.973 106.456 47.2855C108.941 47.5959 111.45 47.8501 113.96 47.698C116.343 47.5542 118.727 47.1001 121 46.3667C125.564 44.8938 129.481 42.3417 133.429 39.698C137.362 37.0605 141.296 34.4251 145.379 32.0334C149.556 29.5834 153.91 27.3938 158.466 25.7355C160.748 24.9105 163.148 24.1688 165.575 23.9334C166.433 23.848 167.266 23.8396 168.125 23.8646C168.168 23.8646 168.202 23.8646 168.227 23.8646C168.252 23.873 168.277 23.873 168.318 23.8813C168.479 23.9167 168.631 23.9417 168.783 23.9834C168.925 24.0251 169.06 24.0667 169.196 24.1188C168.706 23.9501 169.237 24.1855 169.337 24.2188C169.346 24.2188 169.346 24.2188 169.354 24.2271C169.389 24.2688 169.473 24.3542 169.514 24.3876C169.556 24.4876 169.633 24.6063 169.691 24.6896C169.691 24.6896 169.691 24.6896 169.691 24.7001V24.7084C169.716 24.8334 169.777 24.9605 169.81 25.0855C169.843 25.2126 169.952 25.9209 169.935 25.6834C170.079 27.0917 170.029 28.5063 170.021 29.9209C169.962 34.9396 169.077 39.848 167.914 44.7084Z" fill="#114676"/>
</g>
<mask id="mask1_64_554" style="mask-type:luminance" maskUnits="userSpaceOnUse" x="60" y="81" width="51" height="52">
<path d="M60 81.6H110.4V132.504H60V81.6Z" fill="white"/>
</mask>
<g mask="url(#mask1_64_554)">
<path fill-rule="evenodd" clip-rule="evenodd" d="M110.012 105.892C97.8458 103.902 88.2312 94.2854 86.2396 82.1188C85.8042 82.0958 85.3687 82.0854 84.9312 82.0854C71.0687 82.0854 59.8146 93.3417 59.8146 107.202C59.8146 121.063 71.0687 132.319 84.9312 132.319C98.7917 132.319 110.046 121.063 110.046 107.202C110.046 106.763 110.035 106.327 110.012 105.892ZM78.8542 108.131C79.5687 105.977 81.0979 104.41 83.0687 104.41C83.8333 104.41 84.5396 104.683 85.1542 105.125C86.4042 106.029 88.1479 105.75 89.0521 104.504C89.9542 103.254 89.675 101.508 88.4271 100.604C86.8542 99.4667 85.0187 98.8292 83.0687 98.8292C78.3812 98.8292 74.2 102.715 73.1125 108.131H71.9062C70.3667 108.131 69.1167 109.381 69.1167 110.923C69.1167 112.463 70.3667 113.713 71.9062 113.713H73.1125C74.2 119.131 78.3812 123.015 83.0687 123.015C85.0187 123.015 86.8542 122.379 88.4271 121.242C89.675 120.338 89.9542 118.592 89.0521 117.342C88.1479 116.094 86.4042 115.815 85.1542 116.719C84.5396 117.163 83.8333 117.433 83.0687 117.433C81.0979 117.433 79.5687 115.867 78.8542 113.713H83.0687C84.6104 113.713 85.8604 112.463 85.8604 110.923C85.8604 109.381 84.6104 108.131 83.0687 108.131H78.8542Z" fill="#114676"/>
</g>
<mask id="mask2_64_554" style="mask-type:luminance" maskUnits="userSpaceOnUse" x="89" y="52" width="51" height="51">
<path d="M89.0667 52.5042H140V102.933H89.0667V52.5042Z" fill="white"/>
</mask>
<g mask="url(#mask2_64_554)">
<path fill-rule="evenodd" clip-rule="evenodd" d="M139.815 77.4333C139.815 63.5729 128.558 52.3187 114.698 52.3187C100.838 52.3187 89.5813 63.5729 89.5813 77.4333C89.5813 91.2938 100.838 102.55 114.698 102.55C128.558 102.55 139.815 91.2938 139.815 77.4333ZM117.488 67.2021V66.2708C117.488 64.7312 116.238 63.4812 114.698 63.4812C113.156 63.4812 111.906 64.7312 111.906 66.2708V67.2687C108.748 67.7187 106.325 70.4354 106.325 73.7125C106.325 77.3083 109.235 80.225 112.838 80.225H116.558C117.071 80.225 117.488 80.6417 117.488 81.1542C117.488 81.6688 117.071 82.0854 116.558 82.0854H109.117C107.575 82.0854 106.325 83.3354 106.325 84.875C106.325 86.4167 107.575 87.6667 109.117 87.6667H111.906V88.5979C111.906 90.1375 113.156 91.3875 114.698 91.3875C116.238 91.3875 117.488 90.1375 117.488 88.5979V87.6C120.648 87.15 123.069 84.4333 123.069 81.1542C123.069 77.5604 120.16 74.6437 116.558 74.6437H112.838C112.323 74.6437 111.906 74.2271 111.906 73.7125C111.906 73.2 112.323 72.7833 112.838 72.7833H120.279C121.819 72.7833 123.069 71.5333 123.069 69.9917C123.069 68.4521 121.819 67.2021 120.279 67.2021H117.488Z" fill="#114676"/>
</g>
<mask id="mask3_64_554" style="mask-type:luminance" maskUnits="userSpaceOnUse" x="111" y="104" width="29" height="29">
<path d="M111.467 104H140V132.504H111.467V104Z" fill="white"/>
</mask>
<g mask="url(#mask3_64_554)">
<path fill-rule="evenodd" clip-rule="evenodd" d="M114.698 132.319H125.86C133.567 132.319 139.815 126.071 139.815 118.365V107.202C139.815 105.66 138.565 104.41 137.023 104.41C135.483 104.41 134.233 105.66 134.233 107.202V118.365C134.233 122.99 130.485 126.738 125.86 126.738H114.698C113.156 126.738 111.906 127.988 111.906 129.527C111.906 131.067 113.156 132.319 114.698 132.319Z" fill="#114676"/>
</g>
<mask id="mask4_64_554" style="mask-type:luminance" maskUnits="userSpaceOnUse" x="60" y="52" width="28" height="29">
<path d="M60 52.5042H88V80.5333H60V52.5042Z" fill="white"/>
</mask>
<g mask="url(#mask4_64_554)">
<path fill-rule="evenodd" clip-rule="evenodd" d="M84.9313 52.3187H73.7667C66.0604 52.3187 59.8146 58.5646 59.8146 66.2708V77.4333C59.8146 78.975 61.0646 80.225 62.6042 80.225C64.1458 80.225 65.3958 78.975 65.3958 77.4333V66.2708C65.3958 61.6458 69.1417 57.9 73.7667 57.9H84.9313C86.4708 57.9 87.7208 56.65 87.7208 55.1083C87.7208 53.5687 86.4708 52.3187 84.9313 52.3187Z" fill="#114676"/>
</g>
<path d="M60.4299 137.579H67.5966C69.257 137.579 70.7299 137.892 72.0133 138.513C73.3008 139.129 74.2987 140.011 75.0049 141.154C75.7091 142.294 76.0633 143.627 76.0633 145.154C76.0633 146.688 75.7091 148.025 75.0049 149.163C74.2987 150.302 73.3008 151.184 72.0133 151.804C70.7299 152.427 69.257 152.738 67.5966 152.738H60.4299V137.579ZM67.4216 149.313C68.7216 149.313 69.7653 148.946 70.5549 148.213C71.3424 147.475 71.7383 146.454 71.7383 145.154C71.7383 143.854 71.3424 142.838 70.5549 142.104C69.7653 141.367 68.7216 140.996 67.4216 140.996H64.7216V149.313H67.4216Z" fill="#114676"/>
<path d="M78.1263 140.996H82.2346V152.738H78.1263V140.996ZM80.1763 139.696C79.4263 139.696 78.8201 139.488 78.3596 139.071C77.8971 138.654 77.668 138.136 77.668 137.513C77.668 136.892 77.8971 136.371 78.3596 135.954C78.8201 135.534 79.4263 135.321 80.1763 135.321C80.9263 135.321 81.5305 135.521 81.993 135.921C82.4596 136.317 82.693 136.825 82.693 137.446C82.693 138.096 82.4596 138.636 81.993 139.063C81.5305 139.486 80.9263 139.696 80.1763 139.696Z" fill="#114676"/>
<path d="M97.2714 140.996L92.413 152.738H88.1714L83.338 140.996H87.563L90.3797 148.171L93.3464 140.996H97.2714Z" fill="#114676"/>
<path d="M98.3315 140.996H102.44V152.738H98.3315V140.996ZM100.382 139.696C99.6315 139.696 99.0253 139.488 98.5649 139.071C98.1024 138.654 97.8732 138.136 97.8732 137.513C97.8732 136.892 98.1024 136.371 98.5649 135.954C99.0253 135.534 99.6315 135.321 100.382 135.321C101.132 135.321 101.736 135.521 102.198 135.921C102.665 136.317 102.898 136.825 102.898 137.446C102.898 138.096 102.665 138.636 102.198 139.063C101.736 139.486 101.132 139.696 100.382 139.696Z" fill="#114676"/>
<path d="M109.377 152.929C108.393 152.929 107.422 152.817 106.468 152.596C105.518 152.375 104.754 152.084 104.177 151.721L105.41 148.904C105.943 149.238 106.577 149.502 107.31 149.696C108.047 149.892 108.779 149.988 109.502 149.988C110.168 149.988 110.639 149.921 110.918 149.788C111.202 149.65 111.343 149.45 111.343 149.188C111.343 148.927 111.172 148.744 110.835 148.638C110.495 148.527 109.956 148.421 109.218 148.321C108.279 148.204 107.481 148.052 106.827 147.863C106.17 147.675 105.604 147.329 105.127 146.829C104.647 146.325 104.41 145.617 104.41 144.704C104.41 143.954 104.635 143.288 105.085 142.704C105.535 142.117 106.187 141.652 107.043 141.313C107.904 140.975 108.935 140.804 110.135 140.804C110.985 140.804 111.827 140.892 112.66 141.063C113.497 141.236 114.202 141.484 114.768 141.804L113.535 144.596C112.489 144.019 111.362 143.729 110.152 143.729C109.502 143.729 109.022 143.804 108.718 143.954C108.418 144.104 108.268 144.304 108.268 144.554C108.268 144.827 108.435 145.019 108.768 145.129C109.102 145.236 109.647 145.346 110.41 145.463C111.377 145.609 112.177 145.775 112.81 145.963C113.447 146.146 114.002 146.488 114.468 146.988C114.939 147.488 115.177 148.186 115.177 149.079C115.177 149.813 114.952 150.475 114.502 151.063C114.056 151.646 113.395 152.104 112.518 152.438C111.645 152.765 110.597 152.929 109.377 152.929Z" fill="#114676"/>
<path d="M121.956 140.804C123.906 140.804 125.391 141.25 126.414 142.138C127.441 143.027 127.956 144.388 127.956 146.221V152.738H124.123V151.221C123.527 152.361 122.373 152.929 120.656 152.929C119.743 152.929 118.956 152.771 118.289 152.454C117.627 152.138 117.127 151.711 116.789 151.171C116.45 150.627 116.281 150.009 116.281 149.313C116.281 148.202 116.706 147.342 117.556 146.729C118.41 146.113 119.725 145.804 121.498 145.804H123.839C123.766 144.567 122.935 143.946 121.348 143.946C120.785 143.946 120.216 144.038 119.639 144.221C119.06 144.4 118.568 144.646 118.164 144.963L116.781 142.171C117.431 141.738 118.218 141.402 119.148 141.163C120.081 140.925 121.016 140.804 121.956 140.804ZM121.806 150.338C122.277 150.338 122.693 150.221 123.056 149.988C123.416 149.754 123.677 149.417 123.839 148.971V147.954H122.064C120.864 147.954 120.264 148.352 120.264 149.146C120.264 149.509 120.4 149.796 120.673 150.013C120.95 150.229 121.327 150.338 121.806 150.338Z" fill="#114676"/>
<path d="M134.823 152.929C133.839 152.929 132.869 152.817 131.914 152.596C130.964 152.375 130.2 152.084 129.623 151.721L130.856 148.904C131.389 149.238 132.023 149.502 132.756 149.696C133.494 149.892 134.225 149.988 134.948 149.988C135.614 149.988 136.085 149.921 136.364 149.788C136.648 149.65 136.789 149.45 136.789 149.188C136.789 148.927 136.619 148.744 136.281 148.638C135.941 148.527 135.402 148.421 134.664 148.321C133.725 148.204 132.927 148.052 132.273 147.863C131.616 147.675 131.05 147.329 130.573 146.829C130.094 146.325 129.856 145.617 129.856 144.704C129.856 143.954 130.081 143.288 130.531 142.704C130.981 142.117 131.633 141.652 132.489 141.313C133.35 140.975 134.381 140.804 135.581 140.804C136.431 140.804 137.273 140.892 138.106 141.063C138.944 141.236 139.648 141.484 140.214 141.804L138.981 144.596C137.935 144.019 136.808 143.729 135.598 143.729C134.948 143.729 134.469 143.804 134.164 143.954C133.864 144.104 133.714 144.304 133.714 144.554C133.714 144.827 133.881 145.019 134.214 145.129C134.548 145.236 135.094 145.346 135.856 145.463C136.823 145.609 137.623 145.775 138.256 145.963C138.894 146.146 139.448 146.488 139.914 146.988C140.385 147.488 140.623 148.186 140.623 149.079C140.623 149.813 140.398 150.475 139.948 151.063C139.502 151.646 138.841 152.104 137.964 152.438C137.091 152.765 136.044 152.929 134.823 152.929Z" fill="#114676"/>
</svg>
